<?xml version="1.0" encoding="UTF-8"?>
<svg xmlns="http://www.w3.org/2000/svg" width="720" height="260" viewBox="0 0 720 260">
  <rect width="100%" height="100%" fill="#ffffff"/>
  <text x="48" y="18" font-size="14" font-weight="bold">CFD (contagens por coluna): C — Sinergia negativa no handoff entre analista e desenvolvedor principal</text>
  <line x1="48" y1="220" x2="704" y2="220" stroke="#333"/>
  <line x1="48" y1="28" x2="48" y2="220" stroke="#333"/>
  <polyline fill="none" stroke="#444" stroke-width="2" points="48.0,192.6 54.0,192.6 60.0,192.6 66.1,192.6 72.1,192.6 78.1,192.6 84.1,192.6 90.1,192.6 96.1,192.6 102.2,192.6 108.2,192.6 114.2,220.0 120.2,220.0 126.2,220.0 132.3,220.0 138.3,220.0 144.3,220.0 150.3,220.0 156.3,220.0 162.3,220.0 168.4,220.0 174.4,220.0 180.4,220.0 186.4,220.0 192.4,220.0 198.5,220.0 204.5,220.0 210.5,220.0 216.5,220.0 222.5,220.0 228.6,220.0 234.6,220.0 240.6,220.0 246.6,220.0 252.6,220.0 258.6,220.0 264.7,220.0 270.7,220.0 276.7,220.0 282.7,220.0 288.7,220.0 294.8,220.0 300.8,220.0 306.8,220.0 312.8,220.0 318.8,220.0 324.8,220.0 330.9,220.0 336.9,220.0 342.9,220.0 348.9,220.0 354.9,220.0 361.0,220.0 367.0,220.0 373.0,220.0 379.0,220.0 385.0,220.0 391.0,220.0 397.1,220.0 403.1,220.0 409.1,220.0 415.1,220.0 421.1,220.0 427.2,220.0 433.2,220.0 439.2,220.0 445.2,220.0 451.2,220.0 457.2,220.0 463.3,220.0 469.3,220.0 475.3,220.0 481.3,220.0 487.3,220.0 493.4,220.0 499.4,220.0 505.4,220.0 511.4,220.0 517.4,220.0 523.4,220.0 529.5,220.0 535.5,220.0 541.5,220.0 547.5,220.0 553.5,220.0 559.6,220.0 565.6,220.0 571.6,220.0 577.6,220.0 583.6,220.0 589.7,220.0 595.7,220.0 601.7,220.0 607.7,220.0 613.7,220.0 619.7,220.0 625.8,220.0 631.8,220.0 637.8,220.0 643.8,220.0 649.8,220.0 655.9,220.0 661.9,220.0 667.9,220.0 673.9,220.0 679.9,220.0 685.9,220.0 692.0,220.0 698.0,220.0 704.0,220.0" />
<polyline fill="none" stroke="#1976d2" stroke-width="2" points="48.0,137.7 54.0,137.7 60.0,192.6 66.1,220.0 72.1,220.0 78.1,220.0 84.1,220.0 90.1,220.0 96.1,220.0 102.2,220.0 108.2,220.0 114.2,220.0 120.2,220.0 126.2,220.0 132.3,220.0 138.3,220.0 144.3,220.0 150.3,220.0 156.3,220.0 162.3,220.0 168.4,220.0 174.4,220.0 180.4,220.0 186.4,220.0 192.4,220.0 198.5,220.0 204.5,220.0 210.5,220.0 216.5,220.0 222.5,220.0 228.6,220.0 234.6,220.0 240.6,220.0 246.6,220.0 252.6,220.0 258.6,220.0 264.7,220.0 270.7,220.0 276.7,220.0 282.7,220.0 288.7,220.0 294.8,220.0 300.8,220.0 306.8,220.0 312.8,220.0 318.8,220.0 324.8,220.0 330.9,220.0 336.9,220.0 342.9,220.0 348.9,220.0 354.9,220.0 361.0,220.0 367.0,220.0 373.0,220.0 379.0,220.0 385.0,220.0 391.0,220.0 397.1,220.0 403.1,220.0 409.1,220.0 415.1,220.0 421.1,220.0 427.2,220.0 433.2,220.0 439.2,220.0 445.2,220.0 451.2,220.0 457.2,220.0 463.3,220.0 469.3,220.0 475.3,220.0 481.3,220.0 487.3,220.0 493.4,220.0 499.4,220.0 505.4,220.0 511.4,220.0 517.4,220.0 523.4,220.0 529.5,220.0 535.5,220.0 541.5,220.0 547.5,220.0 553.5,220.0 559.6,220.0 565.6,220.0 571.6,220.0 577.6,220.0 583.6,220.0 589.7,220.0 595.7,220.0 601.7,220.0 607.7,220.0 613.7,220.0 619.7,220.0 625.8,220.0 631.8,220.0 637.8,220.0 643.8,220.0 649.8,220.0 655.9,220.0 661.9,220.0 667.9,220.0 673.9,220.0 679.9,220.0 685.9,220.0 692.0,220.0 698.0,220.0 704.0,220.0" />
<polyline fill="none" stroke="#7b1fa2" stroke-width="2" points="48.0,137.7 54.0,192.6 60.0,220.0 66.1,220.0 72.1,220.0 78.1,220.0 84.1,220.0 90.1,220.0 96.1,220.0 102.2,220.0 108.2,220.0 114.2,192.6 120.2,220.0 126.2,220.0 132.3,220.0 138.3,220.0 144.3,220.0 150.3,220.0 156.3,220.0 162.3,220.0 168.4,220.0 174.4,220.0 180.4,220.0 186.4,220.0 192.4,220.0 198.5,220.0 204.5,220.0 210.5,220.0 216.5,220.0 222.5,220.0 228.6,220.0 234.6,220.0 240.6,220.0 246.6,220.0 252.6,220.0 258.6,220.0 264.7,220.0 270.7,220.0 276.7,220.0 282.7,220.0 288.7,220.0 294.8,220.0 300.8,220.0 306.8,220.0 312.8,220.0 318.8,220.0 324.8,220.0 330.9,220.0 336.9,220.0 342.9,220.0 348.9,220.0 354.9,220.0 361.0,220.0 367.0,220.0 373.0,220.0 379.0,220.0 385.0,220.0 391.0,220.0 397.1,220.0 403.1,220.0 409.1,220.0 415.1,220.0 421.1,220.0 427.2,220.0 433.2,220.0 439.2,220.0 445.2,220.0 451.2,220.0 457.2,220.0 463.3,220.0 469.3,220.0 475.3,220.0 481.3,220.0 487.3,220.0 493.4,220.0 499.4,220.0 505.4,220.0 511.4,220.0 517.4,220.0 523.4,220.0 529.5,220.0 535.5,220.0 541.5,220.0 547.5,220.0 553.5,220.0 559.6,220.0 565.6,220.0 571.6,220.0 577.6,220.0 583.6,220.0 589.7,220.0 595.7,220.0 601.7,220.0 607.7,220.0 613.7,220.0 619.7,220.0 625.8,220.0 631.8,220.0 637.8,220.0 643.8,220.0 649.8,220.0 655.9,220.0 661.9,220.0 667.9,220.0 673.9,220.0 679.9,220.0 685.9,220.0 692.0,220.0 698.0,220.0 704.0,220.0" />
<polyline fill="none" stroke="#388e3c" stroke-width="2" points="48.0,220.0 54.0,165.1 60.0,137.7 66.1,165.1 72.1,192.6 78.1,220.0 84.1,220.0 90.1,220.0 96.1,220.0 102.2,220.0 108.2,220.0 114.2,220.0 120.2,220.0 126.2,220.0 132.3,220.0 138.3,220.0 144.3,220.0 150.3,220.0 156.3,220.0 162.3,220.0 168.4,220.0 174.4,220.0 180.4,220.0 186.4,220.0 192.4,220.0 198.5,220.0 204.5,220.0 210.5,220.0 216.5,220.0 222.5,220.0 228.6,220.0 234.6,220.0 240.6,220.0 246.6,220.0 252.6,220.0 258.6,220.0 264.7,220.0 270.7,220.0 276.7,220.0 282.7,220.0 288.7,220.0 294.8,220.0 300.8,220.0 306.8,220.0 312.8,220.0 318.8,220.0 324.8,220.0 330.9,220.0 336.9,220.0 342.9,220.0 348.9,220.0 354.9,220.0 361.0,220.0 367.0,220.0 373.0,220.0 379.0,220.0 385.0,220.0 391.0,220.0 397.1,220.0 403.1,220.0 409.1,220.0 415.1,220.0 421.1,220.0 427.2,220.0 433.2,220.0 439.2,220.0 445.2,220.0 451.2,220.0 457.2,220.0 463.3,220.0 469.3,220.0 475.3,220.0 481.3,220.0 487.3,220.0 493.4,220.0 499.4,220.0 505.4,220.0 511.4,220.0 517.4,220.0 523.4,220.0 529.5,220.0 535.5,220.0 541.5,220.0 547.5,220.0 553.5,220.0 559.6,220.0 565.6,220.0 571.6,220.0 577.6,220.0 583.6,220.0 589.7,220.0 595.7,220.0 601.7,220.0 607.7,220.0 613.7,220.0 619.7,220.0 625.8,220.0 631.8,220.0 637.8,220.0 643.8,220.0 649.8,220.0 655.9,220.0 661.9,220.0 667.9,220.0 673.9,220.0 679.9,220.0 685.9,220.0 692.0,220.0 698.0,220.0 704.0,220.0" />
<polyline fill="none" stroke="#f57c00" stroke-width="2" points="48.0,220.0 54.0,220.0 60.0,220.0 66.1,192.6 72.1,220.0 78.1,220.0 84.1,220.0 90.1,220.0 96.1,220.0 102.2,220.0 108.2,220.0 114.2,220.0 120.2,220.0 126.2,220.0 132.3,220.0 138.3,220.0 144.3,220.0 150.3,220.0 156.3,220.0 162.3,220.0 168.4,220.0 174.4,220.0 180.4,220.0 186.4,220.0 192.4,220.0 198.5,220.0 204.5,220.0 210.5,220.0 216.5,220.0 222.5,220.0 228.6,220.0 234.6,220.0 240.6,220.0 246.6,220.0 252.6,220.0 258.6,220.0 264.7,220.0 270.7,220.0 276.7,220.0 282.7,220.0 288.7,220.0 294.8,220.0 300.8,220.0 306.8,220.0 312.8,220.0 318.8,220.0 324.8,220.0 330.9,220.0 336.9,220.0 342.9,220.0 348.9,220.0 354.9,220.0 361.0,220.0 367.0,220.0 373.0,220.0 379.0,220.0 385.0,220.0 391.0,220.0 397.1,220.0 403.1,220.0 409.1,220.0 415.1,220.0 421.1,220.0 427.2,220.0 433.2,220.0 439.2,220.0 445.2,220.0 451.2,220.0 457.2,220.0 463.3,220.0 469.3,220.0 475.3,220.0 481.3,220.0 487.3,220.0 493.4,220.0 499.4,220.0 505.4,220.0 511.4,220.0 517.4,220.0 523.4,220.0 529.5,220.0 535.5,220.0 541.5,220.0 547.5,220.0 553.5,220.0 559.6,220.0 565.6,220.0 571.6,220.0 577.6,220.0 583.6,220.0 589.7,220.0 595.7,220.0 601.7,220.0 607.7,220.0 613.7,220.0 619.7,220.0 625.8,220.0 631.8,220.0 637.8,220.0 643.8,220.0 649.8,220.0 655.9,220.0 661.9,220.0 667.9,220.0 673.9,220.0 679.9,220.0 685.9,220.0 692.0,220.0 698.0,220.0 704.0,220.0" />
<polyline fill="none" stroke="#c62828" stroke-width="2" points="48.0,220.0 54.0,220.0 60.0,165.1 66.1,137.7 72.1,82.9 78.1,55.4 84.1,55.4 90.1,55.4 96.1,55.4 102.2,55.4 108.2,55.4 114.2,55.4 120.2,28.0 126.2,28.0 132.3,28.0 138.3,28.0 144.3,28.0 150.3,28.0 156.3,28.0 162.3,28.0 168.4,28.0 174.4,28.0 180.4,28.0 186.4,28.0 192.4,28.0 198.5,28.0 204.5,28.0 210.5,28.0 216.5,28.0 222.5,28.0 228.6,28.0 234.6,28.0 240.6,28.0 246.6,28.0 252.6,28.0 258.6,28.0 264.7,28.0 270.7,28.0 276.7,28.0 282.7,28.0 288.7,28.0 294.8,28.0 300.8,28.0 306.8,28.0 312.8,28.0 318.8,28.0 324.8,28.0 330.9,28.0 336.9,28.0 342.9,28.0 348.9,28.0 354.9,28.0 361.0,28.0 367.0,28.0 373.0,28.0 379.0,28.0 385.0,28.0 391.0,28.0 397.1,28.0 403.1,28.0 409.1,28.0 415.1,28.0 421.1,28.0 427.2,28.0 433.2,28.0 439.2,28.0 445.2,28.0 451.2,28.0 457.2,28.0 463.3,28.0 469.3,28.0 475.3,28.0 481.3,28.0 487.3,28.0 493.4,28.0 499.4,28.0 505.4,28.0 511.4,28.0 517.4,28.0 523.4,28.0 529.5,28.0 535.5,28.0 541.5,28.0 547.5,28.0 553.5,28.0 559.6,28.0 565.6,28.0 571.6,28.0 577.6,28.0 583.6,28.0 589.7,28.0 595.7,28.0 601.7,28.0 607.7,28.0 613.7,28.0 619.7,28.0 625.8,28.0 631.8,28.0 637.8,28.0 643.8,28.0 649.8,28.0 655.9,28.0 661.9,28.0 667.9,28.0 673.9,28.0 679.9,28.0 685.9,28.0 692.0,28.0 698.0,28.0 704.0,28.0" />
  <text x="48" y="250" font-size="11" fill="#333">Dia global</text>
  <text transform="translate(14,124) rotate(-90)" font-size="11" fill="#333">Cartões por coluna</text>
  <text x="600" y="16" font-size="11" fill="#444">Backlog</text>
<text x="600" y="30" font-size="11" fill="#1976d2">Pronto</text>
<text x="600" y="44" font-size="11" fill="#7b1fa2">Análise</text>
<text x="600" y="58" font-size="11" fill="#388e3c">Dev</text>
<text x="600" y="72" font-size="11" fill="#f57c00">Teste</text>
<text x="600" y="86" font-size="11" fill="#c62828">Deploy</text>
</svg>